<svg width="768" height="406" fill="currentColor" xmlns="http://www.w3.org/2000/svg" overflow="hidden">
<title>A Distributed Press Model</title>
<defs><clipPath id="clip0"><rect x="3356" y="1472" width="768" height="406"/></clipPath></defs><g clip-path="url(#clip0)" transform="translate(-3356 -1472)"><path d="M3431.5 1742C3431.5 1735.1 3437.54 1729.5 3445 1729.5 3452.46 1729.5 3458.5 1735.1 3458.5 1742 3458.5 1748.9 3452.46 1754.5 3445 1754.5 3437.54 1754.5 3431.5 1748.9 3431.5 1742Z" stroke="currentColor" stroke-width="1.14583" stroke-miterlimit="8" fill="none" fill-rule="evenodd"/><rect x="3431.5" y="1764.5" width="26.9998" height="37.0001" stroke="currentColor" stroke-width="1.14583" stroke-miterlimit="8" fill="none"/><path d="M4018.5 1742C4018.5 1735.1 4024.54 1729.5 4032 1729.5 4039.46 1729.5 4045.5 1735.1 4045.5 1742 4045.5 1748.9 4039.46 1754.5 4032 1754.5 4024.54 1754.5 4018.5 1748.9 4018.5 1742Z" stroke="currentColor" stroke-width="1.14583" stroke-miterlimit="8" fill="none" fill-rule="evenodd"/><rect x="4018.5" y="1764.5" width="27.0002" height="37.0001" stroke="currentColor" stroke-width="1.14583" stroke-miterlimit="8" fill="none"/><text font-family="Calibri,Calibri_MSFontService,sans-serif" font-weight="400" font-size="37" transform="matrix(1 0 0 1 3388.63 1846)">User(s)</text><text font-family="Calibri,Calibri_MSFontService,sans-serif" font-weight="400" font-size="37" transform="matrix(1 0 0 1 3803.54 1840)">Writer/Reporte</text><text font-family="Calibri,Calibri_MSFontService,sans-serif" font-weight="400" font-size="37" transform="matrix(1 0 0 1 4035 1840)">r</text><text font-family="Calibri,Calibri_MSFontService,sans-serif" font-weight="400" font-size="37" transform="matrix(1 0 0 1 4047.6 1840)">(s)</text><rect x="3757.5" y="1536.5" width="308" height="78" stroke="currentColor" stroke-width="1.14583" stroke-miterlimit="8" fill="none"/><text font-family="Calibri,Calibri_MSFontService,sans-serif" font-weight="400" font-size="37" transform="matrix(1 0 0 1 3798.52 1587)">Smart Contract</text><rect x="3509.5" y="1536.5" width="191" height="78" stroke="currentColor" stroke-width="1.14583" stroke-miterlimit="8" fill="none"/><text font-family="Calibri,Calibri_MSFontService,sans-serif" font-weight="400" font-size="37" transform="matrix(1 0 0 1 3573.66 1587)">IPFS</text><rect x="3508.5" y="1751.5" width="192" height="78" stroke="currentColor" stroke-width="1.14583" stroke-miterlimit="8" fill="none"/><text font-family="Calibri,Calibri_MSFontService,sans-serif" font-weight="400" font-size="37" transform="matrix(1 0 0 1 3542.44 1802)">Accoun</text><text font-family="Calibri,Calibri_MSFontService,sans-serif" font-weight="400" font-size="37" transform="matrix(1 0 0 1 3653.01 1802)">t</text><rect x="3509.5" y="1669.5" width="191" height="77" stroke="currentColor" stroke-width="1.14583" stroke-miterlimit="8" fill="none"/><text font-family="Calibri,Calibri_MSFontService,sans-serif" font-weight="400" font-size="37" transform="matrix(1 0 0 1 3542.43 1720)">Browse</text><text font-family="Calibri,Calibri_MSFontService,sans-serif" font-weight="400" font-size="37" transform="matrix(1 0 0 1 3653.58 1720)">r</text><path d="M3700.5 1575.5 3757.97 1575.5" stroke="currentColor" stroke-width="1.14583" stroke-miterlimit="8" fill="none" fill-rule="evenodd"/><path d="M3911.8 1613.18 3924.92 1625.98 3923.32 1627.62 3910.2 1614.82ZM3929.84 1630.78 3942.96 1643.59 3941.36 1645.23 3928.24 1632.42ZM3947.89 1648.39 3961.01 1661.19 3959.41 1662.83 3946.29 1650.03ZM3965.93 1665.99 3979.05 1678.8 3977.45 1680.44 3964.33 1667.63ZM3983.97 1683.6 3997.09 1696.4 3995.49 1698.04 3982.37 1685.24ZM4002.01 1701.2 4002.75 1701.92 4001.15 1703.56 4000.41 1702.84ZM4008.28 1689.7 4018.36 1718.75 3989.07 1709.38Z"/><path d="M0.572917-3.79091e-06 0.573126 31.6246-0.572707 31.6246-0.572917 3.79091e-06ZM13.7502 27.0412 0.000360892 54.5413-13.7498 27.0414Z" transform="matrix(1 0 0 -1 3604.5 1669.04)"/><rect x="3495.5" y="1656.5" width="218" height="184" stroke="currentColor" stroke-width="1.14583" stroke-miterlimit="8" stroke-dasharray="9.16667 3.4375" fill="none"/><text font-family="Calibri,Calibri_MSFontService,sans-serif" font-weight="400" font-size="37" transform="matrix(1 0 0 1 3529.16 1526)">Frontend</text><text font-family="Calibri,Calibri_MSFontService,sans-serif" font-weight="400" font-size="37" transform="matrix(1 0 0 1 3834.93 1522)">Backend</text><path d="M3723.5 1741C3723.5 1709.24 3781.93 1683.5 3854 1683.5 3926.07 1683.5 3984.5 1709.24 3984.5 1741 3984.5 1772.76 3926.07 1798.5 3854 1798.5 3781.93 1798.5 3723.5 1772.76 3723.5 1741Z" stroke="currentColor" stroke-width="1.14583" stroke-miterlimit="8" stroke-dasharray="9.16667 3.4375" fill="none" fill-rule="evenodd"/><text font-family="Calibri,Calibri_MSFontService,sans-serif" font-weight="400" font-size="37" transform="matrix(1 0 0 1 3797.2 1752)">Hashe</text><text font-family="Calibri,Calibri_MSFontService,sans-serif" font-weight="400" font-size="37" transform="matrix(1 0 0 1 3890.01 1752)">d</text><text font-family="Calibri,Calibri_MSFontService,sans-serif" font-weight="400" font-size="37" transform="matrix(1 0 0 1 3392.29 1642)">No</text><text font-family="Calibri,Calibri_MSFontService,sans-serif" font-weight="400" font-size="37" transform="matrix(1 0 0 1 3443.28 1642)">Log</text><text font-family="Calibri,Calibri_MSFontService,sans-serif" font-weight="400" font-size="37" transform="matrix(1 0 0 1 3495.42 1642)">s</text><text font-family="Calibri,Calibri_MSFontService,sans-serif" font-weight="400" font-size="37" transform="matrix(0.694099 0.719879 -0.719879 0.694099 3964.96 1634)">Incentive</text></g></svg>